<?xml version="1.0" encoding="utf-8"?>
<!-- Generator: Adobe Illustrator 27.5.0, SVG Export Plug-In . SVG Version: 6.00 Build 0)  -->
<svg version="1.1" id="Capa_1" xmlns="http://www.w3.org/2000/svg" xmlns:xlink="http://www.w3.org/1999/xlink" x="0px" y="0px"
	 viewBox="0 0 2215 2033" style="enable-background:new 0 0 2215 2033;" xml:space="preserve">
<g>
	<path style="fill:#70294B;" d="M2143.045,1005.189c-10.4-13.355-26.078-21.014-43.017-21.014h-0.001
		c-12.053,0.001-23.936,4.085-33.457,11.5c-20.239,15.76-26.252,43.052-16.108,65.456l-194.75,157.855
		c-10.018-47.346-24.037-93.771-41.758-136.693c-45.832-111.012-120.173-211.911-214.986-291.788
		c-24.681-20.793-50.67-40.031-77.684-57.696l107.684-248.578c4.346,1.102,8.791,1.721,13.309,1.721
		c22.206,0,42.001-13.275,50.429-33.82c5.524-13.466,5.474-28.279-0.143-41.707c-5.615-13.428-16.125-23.866-29.592-29.39
		c-6.609-2.712-13.562-4.086-20.668-4.086c-22.206,0.001-42.001,13.276-50.429,33.82c-5.524,13.467-5.475,28.279,0.142,41.707
		c3.935,9.411,10.314,17.304,18.39,23.115l-97.586,251.773c-72.854-46.36-153.051-81.091-236.386-101.884
		c-64.67-16.135-131.694-24.938-199.209-26.163c-3.673-0.067-7.355-0.079-11.037-0.101l-1.007-335.923
		c26.309-4.356,46.18-27.504,45.562-54.923c-0.661-29.371-25.093-53.266-54.462-53.266l-1.245,0.014
		c-14.55,0.327-28.103,6.302-38.162,16.823c-10.058,10.521-15.416,24.33-15.089,38.881c0.572,25.418,18.956,46.701,42.928,51.98
		l14.144,336.385c-190.062,0.414-371.976,60.328-514.254,169.101l-134.517-241.96c20.928-16.53,27.137-46.397,13.346-70.102
		c-9.723-16.714-27.783-27.096-47.131-27.096h-0.001c-9.59,0-19.055,2.558-27.372,7.397c-25.972,15.109-34.809,48.532-19.7,74.504
		c9.724,16.713,27.784,27.096,47.133,27.096c5.288,0,10.515-0.851,15.554-2.359l145.036,238.469
		c-1.34,1.052-2.702,2.076-4.034,3.136c-51.839,41.249-97.977,88.664-137.135,140.929
		c-58.813,78.499-102.112,170.269-126.765,266.812l-109.698-103.44c6.596-9.714,9.913-21.218,9.33-33.153
		c-0.711-14.538-7.041-27.929-17.824-37.707c-10.045-9.108-23.041-14.125-36.593-14.125h0c-15.353,0-30.071,6.521-40.379,17.889
		c-20.184,22.258-18.495,56.788,3.764,76.972c10.045,9.109,23.042,14.125,36.594,14.125c11.018,0,21.68-3.407,30.649-9.505
		l120.367,104.936c-9.068,38.95-15.215,78.567-18.014,118.355c-13.308,189.205,31.852,323.52,134.222,399.213
		c13.438,9.937,27.782,18.837,42.631,26.454c22.88,11.734,49.77,17.937,77.762,17.937h1112.617c27.994,0,54.882-6.202,77.761-17.937
		c104.844-53.772,166.804-159.781,179.183-306.565c5.51-65.343,0.581-137.465-13.317-208l204.19-152.703
		c10.093,9.772,23.482,15.304,37.81,15.304c12.053,0,23.935-4.084,33.457-11.5
		C2157.239,1063.202,2161.505,1028.896,2143.045,1005.189z"/>
	<g>
		<path style="fill:#FAD9E8;" d="M1655.067,400.306c-4.182-1.715-8.507-2.527-12.762-2.527c-9.024,0-17.67,3.723-23.993,10.165
			c0.019-0.057,0.029-0.114,0.048-0.171c-0.234,0.235-0.407,0.534-0.633,0.777c-0.974,1.043-1.876,2.161-2.72,3.338
			c-0.341,0.474-0.694,0.928-1.012,1.423c-1.077,1.684-2.061,3.449-2.846,5.364c-7.057,17.2,1.167,36.864,18.368,43.919
			c1.06,0.435,2.129,0.809,3.205,1.13c0.362,0.108,0.73,0.175,1.093,0.27c0.716,0.187,1.432,0.383,2.15,0.521
			c0.433,0.083,0.867,0.124,1.3,0.189c0.65,0.099,1.301,0.21,1.95,0.27c0.472,0.043,0.94,0.044,1.41,0.068
			c0.597,0.03,1.198,0.071,1.794,0.069c1.457-0.006,2.9-0.127,4.329-0.32c0.346-0.046,0.689-0.106,1.032-0.163
			c1.304-0.217,2.592-0.496,3.857-0.863c0.148-0.043,0.299-0.07,0.445-0.115c1.377-0.419,2.713-0.947,4.024-1.538
			c0.317-0.143,0.629-0.295,0.942-0.448c1.216-0.593,2.403-1.242,3.542-1.979c0.094-0.06,0.193-0.11,0.286-0.171
			c1.205-0.796,2.343-1.694,3.443-2.645c0.269-0.232,0.53-0.472,0.792-0.713c1.04-0.959,2.041-1.967,2.96-3.065
			c0.041-0.047,0.085-0.089,0.124-0.136c0.945-1.138,1.793-2.37,2.591-3.647c0.196-0.312,0.385-0.629,0.571-0.949
			c0.766-1.32,1.481-2.682,2.076-4.133c0.285-0.694,0.535-1.392,0.77-2.093c-0.015,0.015-0.033,0.026-0.047,0.041
			C1679.786,425.488,1671.588,407.084,1655.067,400.306z"/>
		<path style="fill:#FAD9E8;" d="M405.427,466.701c-0.377-0.648-0.779-1.272-1.191-1.886c0.006,0.045,0.003,0.09,0.008,0.135
			c-6.423-9.608-17.017-14.991-27.945-14.99c-5.747,0-11.572,1.473-16.896,4.571c-12.149,7.068-18.213,20.568-16.417,33.679
			c-0.003-0.005-0.007-0.009-0.01-0.013c0.045,0.33,0.128,0.657,0.183,0.987c0.118,0.706,0.229,1.413,0.393,2.115
			c0.092,0.393,0.223,0.779,0.33,1.17c0.18,0.66,0.347,1.323,0.569,1.976c0.179,0.528,0.41,1.044,0.618,1.566
			c0.201,0.508,0.377,1.021,0.605,1.522c0.465,1.022,0.982,2.03,1.559,3.021c0.704,1.21,1.491,2.339,2.316,3.427
			c0.244,0.323,0.503,0.629,0.758,0.941c0.634,0.777,1.297,1.519,1.989,2.227c0.275,0.282,0.545,0.57,0.829,0.84
			c0.959,0.915,1.951,1.786,3,2.571c0.038,0.028,0.078,0.051,0.116,0.078c1.019,0.758,2.084,1.435,3.174,2.068
			c0.338,0.196,0.684,0.375,1.027,0.559c0.852,0.456,1.719,0.872,2.604,1.252c0.347,0.148,0.69,0.305,1.042,0.442
			c1.205,0.47,2.428,0.891,3.677,1.219c0.078,0.021,0.158,0.03,0.235,0.05c1.18,0.302,2.379,0.526,3.586,0.699
			c0.382,0.055,0.765,0.091,1.148,0.133c0.963,0.105,1.93,0.166,2.902,0.187c0.374,0.008,0.746,0.026,1.121,0.021
			c1.298-0.015,2.595-0.084,3.893-0.251c0.067-0.009,0.133-0.027,0.201-0.036c1.227-0.166,2.448-0.417,3.663-0.722
			c0.384-0.096,0.766-0.213,1.147-0.324c0.939-0.272,1.87-0.587,2.793-0.946c0.376-0.145,0.753-0.283,1.125-0.443
			c1.246-0.535,2.478-1.125,3.68-1.824c3.013-1.753,5.653-3.902,7.891-6.342c1.492-1.627,2.807-3.383,3.935-5.238
			c1.128-1.855,2.07-3.809,2.817-5.831c1.121-3.033,1.803-6.219,2.022-9.453c0.072-1.078,0.093-2.162,0.061-3.247
			c-0.064-2.17-0.338-4.346-0.831-6.499C408.413,472.886,407.181,469.714,405.427,466.701z"/>
		<path style="fill:#FAD9E8;" d="M2126.609,1017.987c-6.636-8.523-16.556-12.982-26.582-12.982c-3.064,0-6.123,0.511-9.116,1.356
			c0.046-0.042,0.085-0.088,0.132-0.13c-0.4,0.111-0.792,0.266-1.19,0.392c-0.336,0.106-0.671,0.214-1.005,0.331
			c-1.485,0.524-2.942,1.148-4.365,1.891c-0.261,0.136-0.515,0.292-0.774,0.436c-1.491,0.83-2.952,1.747-4.342,2.828
			c-7.334,5.711-11.658,13.854-12.721,22.403c-0.134,1.069-0.215,2.143-0.245,3.221c-0.031,1.078-0.01,2.157,0.063,3.235
			c0.219,3.234,0.904,6.454,2.071,9.553c1.166,3.1,2.813,6.078,4.956,8.828c0.005,0.007,0.011,0.013,0.017,0.019
			c0.773,0.992,1.598,1.917,2.455,2.798c0.282,0.29,0.585,0.55,0.876,0.828c0.598,0.572,1.203,1.132,1.834,1.652
			c0.362,0.299,0.737,0.575,1.111,0.858c0.597,0.452,1.202,0.887,1.824,1.295c0.399,0.262,0.804,0.514,1.212,0.757
			c0.634,0.378,1.279,0.729,1.933,1.062c0.412,0.21,0.821,0.422,1.239,0.615c0.707,0.324,1.427,0.609,2.152,0.883
			c0.379,0.144,0.753,0.304,1.137,0.433c0.969,0.326,1.952,0.602,2.943,0.839c0.149,0.035,0.294,0.087,0.441,0.121
			c1.144,0.256,2.3,0.445,3.463,0.581c0.354,0.042,0.711,0.051,1.067,0.082c0.815,0.069,1.631,0.125,2.451,0.136
			c0.317,0.004,0.634-0.014,0.952-0.018c1.594-0.025,3.187-0.134,4.769-0.385c0.051-0.008,0.102-0.009,0.152-0.018
			c1.607-0.263,3.192-0.681,4.761-1.181c0.291-0.093,0.585-0.18,0.875-0.281c1.511-0.529,2.992-1.167,4.436-1.922
			c0.271-0.141,0.535-0.3,0.803-0.449c1.49-0.831,2.95-1.745,4.338-2.826c0.591-0.461,1.156-0.943,1.708-1.434
			c-0.02,0.006-0.041,0.007-0.061,0.013C2135.555,1052.121,2137.581,1032.077,2126.609,1017.987z"/>
		<path style="fill:#FAD9E8;" d="M135.128,1024.808c0.034,0.073,0.054,0.151,0.088,0.225c-6.166-4.95-13.556-7.514-20.983-7.514
			c-9.168,0-18.304,3.724-24.947,11.051c-9.441,10.411-11.137,25.112-5.459,37.064c-0.004-0.003-0.009-0.005-0.013-0.008
			c0.018,0.038,0.048,0.072,0.066,0.11c0.901,1.882,1.975,3.697,3.241,5.413c0.022,0.031,0.05,0.059,0.073,0.09
			c1.289,1.733,2.755,3.372,4.416,4.878c1.528,1.386,3.16,2.577,4.851,3.631c0.134,0.084,0.261,0.181,0.397,0.263
			c1.622,0.98,3.312,1.784,5.04,2.464c0.223,0.088,0.441,0.187,0.665,0.27c1.692,0.624,3.42,1.091,5.171,1.433
			c0.273,0.053,0.543,0.112,0.817,0.158c1.736,0.295,3.485,0.448,5.239,0.47c0.399,0.005,0.798,0.007,1.197-0.002
			c0.609-0.014,1.217-0.046,1.825-0.093c0.504-0.038,1.006-0.085,1.508-0.146c0.609-0.075,1.213-0.172,1.817-0.279
			c0.493-0.088,0.983-0.177,1.472-0.286c0.608-0.136,1.209-0.3,1.809-0.471c0.478-0.135,0.953-0.266,1.425-0.422
			c0.6-0.199,1.187-0.431,1.777-0.663c0.458-0.181,0.917-0.354,1.369-0.555c0.595-0.267,1.175-0.571,1.756-0.873
			c0.424-0.221,0.854-0.427,1.271-0.668c0.598-0.344,1.175-0.733,1.755-1.116c0.378-0.25,0.764-0.481,1.135-0.748
			c0.626-0.452,1.223-0.954,1.822-1.453c0.299-0.248,0.61-0.473,0.901-0.733c0.876-0.783,1.722-1.615,2.529-2.504
			c12.488-13.772,11.447-35.061-2.325-47.549C136.279,1025.741,135.707,1025.268,135.128,1024.808z"/>
		<path style="fill:#FAD9E8;" d="M1089.761,206.667c-1.498-17.29-15.971-30.734-33.481-30.733l-0.772,0.008
			c-14.051,0.316-25.884,9.205-30.648,21.552c-0.002-0.006-0.002-0.012-0.003-0.018c-0.126,0.327-0.218,0.671-0.333,1.003
			c-0.231,0.659-0.472,1.313-0.661,1.989c-0.116,0.408-0.191,0.83-0.29,1.244c-0.155,0.645-0.325,1.285-0.444,1.944
			c-0.106,0.591-0.159,1.198-0.233,1.8c-0.063,0.499-0.151,0.989-0.19,1.495c-0.088,1.12-0.122,2.255-0.095,3.403
			c0.027,1.154,0.111,2.292,0.25,3.413c0.047,0.378,0.134,0.742,0.194,1.117c0.116,0.736,0.221,1.474,0.384,2.192
			c0.096,0.423,0.234,0.828,0.346,1.245c0.175,0.651,0.335,1.308,0.546,1.943c0.141,0.422,0.322,0.824,0.478,1.238
			c0.23,0.608,0.448,1.223,0.711,1.814c0.183,0.409,0.402,0.796,0.601,1.197c0.282,0.57,0.552,1.147,0.865,1.698
			c0.229,0.404,0.493,0.783,0.738,1.175c0.324,0.519,0.637,1.047,0.988,1.546c0.276,0.392,0.584,0.758,0.876,1.138
			c0.361,0.469,0.71,0.948,1.095,1.398c0.317,0.37,0.663,0.712,0.995,1.068c0.398,0.426,0.786,0.862,1.204,1.266
			c0.353,0.34,0.73,0.65,1.096,0.974c0.435,0.385,0.861,0.78,1.316,1.143c0.386,0.308,0.797,0.585,1.196,0.876
			c0.466,0.339,0.923,0.687,1.405,1.002c0.423,0.277,0.868,0.52,1.304,0.778c0.49,0.288,0.97,0.586,1.473,0.85
			c0.453,0.237,0.922,0.439,1.386,0.655c0.517,0.242,1.028,0.493,1.558,0.708c0.475,0.193,0.965,0.35,1.451,0.522
			c0.542,0.191,1.078,0.392,1.632,0.556c0.501,0.148,1.013,0.26,1.522,0.385c0.559,0.137,1.115,0.284,1.685,0.393
			c0.524,0.1,1.058,0.163,1.589,0.239c0.575,0.081,1.146,0.172,1.729,0.224c0.542,0.048,1.092,0.059,1.641,0.082
			c0.715,0.029,1.427,0.076,2.155,0.06c4.647-0.105,9.052-1.146,13.039-2.94c2.992-1.345,5.748-3.114,8.194-5.227
			c4.079-3.523,7.296-8.005,9.313-13.085c0.806-2.033,1.419-4.16,1.818-6.361c0.399-2.201,0.584-4.475,0.532-6.798
			c-0.017-0.75-0.066-1.49-0.131-2.227C1089.78,206.631,1089.768,206.648,1089.761,206.667z"/>
	</g>
	<path style="fill:#AAD8D8;" d="M1847.451,1370.579c-0.008-0.449-0.01-0.899-0.019-1.349c-0.062-2.873-0.155-5.746-0.253-8.62
		c-0.03-0.887-0.05-1.774-0.083-2.661c-0.098-2.607-0.224-5.214-0.351-7.82c-0.056-1.155-0.103-2.31-0.164-3.466
		c-0.132-2.465-0.287-4.93-0.445-7.394c-0.082-1.283-0.155-2.566-0.243-3.848c-0.162-2.37-0.348-4.737-0.534-7.105
		c-0.108-1.379-0.208-2.76-0.324-4.138c-0.193-2.294-0.405-4.584-0.618-6.874c-0.135-1.449-0.265-2.898-0.408-4.345
		c-0.219-2.216-0.455-4.43-0.693-6.642c-0.163-1.522-0.323-3.044-0.496-4.565c-0.244-2.153-0.503-4.302-0.765-6.45
		c-0.191-1.573-0.38-3.145-0.581-4.714c-0.266-2.085-0.547-4.166-0.829-6.245c-0.221-1.63-0.442-3.26-0.674-4.886
		c-0.288-2.032-0.589-4.059-0.891-6.085c-0.25-1.658-0.498-3.315-0.757-4.969c-0.311-1.996-0.633-3.986-0.96-5.976
		c-0.273-1.676-0.55-3.35-0.835-5.022c-0.331-1.944-0.67-3.885-1.013-5.823c-0.217-1.221-0.43-2.445-0.651-3.663l-30.75,22.996
		l-156.715,117.2c5.748,7.566,8.648,17.398,6.352,28.133c-1.887,9.987-8.559,18.799-17.136,22.559
		c-2.613,1.145-5.659-0.044-6.805-2.657c-0.791-1.793-0.455-3.727,0.607-5.214c7.237-11.429,6.039-23.212-0.147-31.099
		c-6.165-8.042-17.889-11.927-30.609-7.295c-4.675,1.814-8.911-4.222-5.785-8.014c15.58-18.373,40.987-12.709,53.387,3.418
		l155.458-126.007l30.173-24.458c-0.122-0.63-0.254-1.254-0.379-1.884c-0.369-1.864-0.742-3.725-1.124-5.582
		c-0.353-1.723-0.712-3.441-1.075-5.157c-0.391-1.843-0.785-3.682-1.185-5.516c-0.379-1.728-0.762-3.449-1.151-5.169
		c-0.403-1.792-0.81-3.58-1.225-5.363c-0.408-1.755-0.824-3.501-1.242-5.246c-0.417-1.742-0.834-3.483-1.261-5.215
		c-0.435-1.765-0.88-3.522-1.323-5.277c-0.429-1.692-0.858-3.384-1.296-5.067c-0.463-1.775-0.933-3.54-1.406-5.304
		c-0.44-1.649-0.88-3.298-1.33-4.937c-0.488-1.779-0.985-3.544-1.483-5.311c-0.451-1.602-0.9-3.206-1.36-4.799
		c-0.511-1.775-1.034-3.534-1.555-5.296c-0.464-1.57-0.927-3.142-1.398-4.701c-0.533-1.763-1.078-3.508-1.621-5.257
		c-0.475-1.53-0.947-3.066-1.429-4.585c-0.559-1.761-1.129-3.503-1.697-5.249c-0.482-1.478-0.959-2.965-1.446-4.433
		c-0.593-1.781-1.195-3.54-1.797-5.304c-0.481-1.411-0.956-2.832-1.443-4.232c-0.624-1.797-1.261-3.569-1.895-5.348
		c-0.477-1.336-0.947-2.684-1.427-4.009c-0.679-1.869-1.37-3.709-2.059-5.556c-0.45-1.21-0.895-2.433-1.35-3.634
		c-0.767-2.023-1.547-4.014-2.325-6.009c-0.389-0.997-0.771-2.009-1.163-2.999c-1.175-2.969-2.361-5.908-3.56-8.812
		c-2.842-6.883-5.789-13.711-8.839-20.482c-58.098-128.989-153.558-237.413-270.241-314.752l-17.904,41.33l-69.868,161.286
		c8.748,3.711,16.157,10.787,19.497,21.245c3.323,9.604,1.911,20.567-3.666,28.091c-2.826,4.094-9.675,1.592-9.31-3.273
		c0.827-13.539-6.141-23.642-15.556-27.395c-9.274-3.823-21.029-1.634-29.902,8.546c-2.994,4.296-10.138,1.333-9.289-3.753
		c4.395-23.684,29.248-31.368,48.022-23.533l64.114-165.415l16.284-42.013c-15.689-10.141-31.707-19.788-48.102-28.788
		c-6.45-3.541-12.952-6.992-19.503-10.351c-13.102-6.718-26.401-13.069-39.879-19.042c-40.433-17.916-82.471-32.422-125.614-43.186
		c-7.083-1.767-14.196-3.411-21.324-4.994c-2.156-0.479-4.318-0.934-6.479-1.396c-5.221-1.117-10.451-2.185-15.694-3.203
		c-2.217-0.431-4.432-0.872-6.654-1.285c-7.053-1.312-14.116-2.564-21.202-3.699c-0.946-0.152-1.895-0.276-2.84-0.424
		c-6.215-0.975-12.442-1.877-18.678-2.716c-2.582-0.347-5.168-0.668-7.753-0.992c-4.834-0.606-9.671-1.169-14.515-1.693
		c-2.596-0.281-5.191-0.573-7.79-0.831c-6.917-0.686-13.841-1.313-20.774-1.834c0.001,0,0.001,0,0.001,0
		c-16.531-1.242-33.097-2.024-49.675-2.325c-3.49-0.064-6.989-0.073-10.485-0.095l0.468,156.091
		c9.501-0.1,19.122,3.436,26.369,11.683c6.891,7.471,9.984,18.083,7.885,27.21c-0.64,2.78-3.412,4.516-6.191,3.876
		c-1.911-0.435-3.265-1.857-3.824-3.597c-4.856-12.626-15.028-18.693-25.048-18.432c-10.133,0.152-20.241,7.244-24.113,20.217
		c-1.333,4.834-8.704,4.633-9.883-0.137c-5.453-23.464,14.247-40.478,34.588-40.811l-6.567-156.139
		c-179.955,0.182-359.771,55.768-502.545,166.104l38.363,69.003l39.233,70.57l25.204,45.335c8.687-5.688,19.771-7.851,31.047-3.704
		c9.621,3.277,17.403,11.126,19.914,20.148c0.766,2.748-0.843,5.596-3.591,6.361c-1.887,0.53-3.754-0.074-5.077-1.336
		c-10.293-8.778-22.127-9.255-30.808-4.243c-8.831,4.969-14.333,16.025-11.542,29.273c1.136,4.884-5.438,8.225-8.75,4.596
		c-15.252-17.186-7.591-40.135,8.521-50.897l-26.629-43.784l-41.633-68.453l-41.089-67.559c-0.477,0.378-0.965,0.74-1.441,1.119
		c-49.698,39.545-94.422,85.33-132.509,136.167c-14.816,19.775-28.45,40.392-41.087,61.601c-2.958,4.966-5.915,9.935-8.759,14.967
		c-0.936,1.657-1.885,3.307-2.809,4.972c-2.704,4.871-5.339,9.778-7.931,14.71c-1.012,1.928-2.011,3.864-3.006,5.801
		c-2.533,4.929-5.032,9.874-7.452,14.859c-0.834,1.717-1.631,3.452-2.451,5.175c-7.739,16.263-14.865,32.813-21.393,49.601
		c-0.942,2.421-1.911,4.83-2.828,7.26c-1.665,4.422-3.251,8.874-4.832,13.327c-1.109,3.121-2.209,6.245-3.276,9.381
		c-1.427,4.198-2.817,8.408-4.169,12.631c-1.132,3.534-2.218,7.081-3.298,10.632c-1.204,3.964-2.413,7.925-3.549,11.908
		c-1.23,4.302-2.372,8.628-3.522,12.952c-0.881,3.309-1.814,6.606-2.649,9.927c-1.003,3.989-1.899,8.004-2.835,12.009l30.195,28.473
		l215.272,202.99c6.466-6.963,15.641-11.52,26.612-11.102c10.162,0.144,19.99,5.202,25.167,13.007
		c2.888,4.051-1.794,9.639-6.246,7.641c-12.45-5.387-24.321-2.271-31.055,5.303c-6.751,7.419-8.692,19.217-2.14,31.025
		c2.969,4.361-2.107,9.945-6.69,7.458c-20.775-12.193-19.541-38.178-5.785-53.164l-216.575-188.812l-32.081-27.968
		c-0.304,1.432-0.588,2.867-0.884,4.302c-1.023,4.969-2.026,9.941-2.948,14.93c-0.586,3.175-1.126,6.358-1.671,9.54
		c-0.842,4.923-1.638,9.851-2.38,14.79c-0.463,3.08-0.918,6.16-1.341,9.245c-0.736,5.366-1.391,10.742-2.009,16.123
		c-0.301,2.624-0.633,5.244-0.906,7.87c-0.829,7.992-1.559,15.993-2.123,24.008c-1.476,20.983-2.298,42.509-2.193,64.221
		c0.064,13.027,0.46,26.123,1.25,39.208c0.527,8.724,1.228,17.444,2.121,26.137c1.787,17.386,4.343,34.664,7.807,51.653
		c2.599,12.742,5.708,25.322,9.388,37.662c4.906,16.453,10.826,32.481,17.9,47.902c1.769,3.855,3.609,7.672,5.524,11.449
		c3.83,7.553,7.957,14.942,12.399,22.147c4.442,7.204,9.199,14.222,14.287,21.032c5.089,6.809,10.51,13.41,16.281,19.78
		c5.771,6.37,11.892,12.508,18.38,18.392c6.488,5.885,13.344,11.514,20.583,16.868c3.082,2.279,6.21,4.495,9.381,6.647
		c9.515,6.454,19.422,12.328,29.653,17.576c18.02,9.242,40.412,15.067,65.878,15.067h1112.617c25.466,0,47.859-5.825,65.879-15.067
		c7.223-3.704,14.119-7.699,20.8-11.879c0.388-0.242,0.788-0.472,1.174-0.715c1.635-1.034,3.238-2.094,4.841-3.155
		c1.846-1.223,3.672-2.462,5.476-3.72c1.507-1.052,3.012-2.104,4.491-3.181c2.067-1.505,4.091-3.048,6.101-4.602
		c1.124-0.868,2.273-1.712,3.378-2.594c2.986-2.384,5.903-4.823,8.763-7.311c1.012-0.88,1.989-1.789,2.986-2.682
		c1.999-1.792,3.977-3.6,5.913-5.443c1.054-1.003,2.095-2.017,3.131-3.035c1.922-1.89,3.812-3.807,5.672-5.747
		c0.879-0.916,1.767-1.823,2.632-2.75c2.666-2.859,5.285-5.753,7.82-8.712c2.048-2.391,4.044-4.822,6.009-7.278
		c0.17-0.214,0.348-0.422,0.519-0.636c1.841-2.316,3.634-4.67,5.402-7.042c0.273-0.368,0.558-0.729,0.83-1.098
		c1.678-2.275,3.311-4.583,4.923-6.906c0.337-0.484,0.683-0.962,1.016-1.449c1.546-2.255,3.047-4.541,4.531-6.84
		c0.37-0.573,0.749-1.14,1.115-1.715c1.432-2.254,2.826-4.535,4.202-6.829c0.384-0.641,0.775-1.278,1.156-1.922
		c1.334-2.262,2.632-4.547,3.911-6.845c0.389-0.699,0.783-1.395,1.168-2.097c1.24-2.269,2.448-4.56,3.635-6.863
		c0.391-0.756,0.785-1.509,1.169-2.267c1.158-2.287,2.286-4.594,3.393-6.913c0.378-0.79,0.758-1.578,1.129-2.371
		c1.083-2.311,2.137-4.64,3.171-6.982c0.366-0.825,0.73-1.651,1.088-2.48c1.011-2.336,1.995-4.686,2.958-7.05
		c0.347-0.852,0.693-1.704,1.034-2.559c0.942-2.363,1.86-4.74,2.756-7.13c0.328-0.876,0.654-1.754,0.976-2.632
		c0.876-2.389,1.73-4.79,2.561-7.203c0.31-0.899,0.615-1.801,0.918-2.704c0.812-2.417,1.605-4.844,2.375-7.284
		c0.287-0.912,0.568-1.829,0.849-2.744c0.754-2.452,1.49-4.912,2.2-7.387c0.262-0.913,0.516-1.83,0.773-2.745
		c0.697-2.494,1.38-4.995,2.034-7.51c0.238-0.913,0.466-1.829,0.698-2.744c0.642-2.536,1.272-5.079,1.873-7.635
		c0.21-0.895,0.409-1.795,0.615-2.692c0.592-2.591,1.171-5.188,1.721-7.797c0.183-0.872,0.356-1.75,0.535-2.624
		c0.542-2.647,1.071-5.298,1.569-7.963c0.158-0.838,0.302-1.681,0.454-2.521c0.493-2.716,0.976-5.436,1.425-8.169
		c0.127-0.771,0.241-1.547,0.366-2.32c0.45-2.816,0.888-5.637,1.293-8.47c0.094-0.658,0.177-1.318,0.268-1.977
		c0.409-2.95,0.807-5.906,1.17-8.872c0.062-0.516,0.116-1.033,0.177-1.549c0.372-3.124,0.729-6.253,1.048-9.392
		c0.023-0.223,0.041-0.447,0.063-0.67c1.239-12.33,2.081-24.775,2.552-37.287C1847.6,1395.755,1847.698,1383.176,1847.451,1370.579z
		"/>
	<path style="fill:#FFFFFF;" d="M515.361,1095.811l-0.08,0.092l-0.487,0.571c-0.464,0.547-1.196,1.421-2.139,2.578
		c-1.889,2.314-4.628,5.764-7.765,9.995c-6.277,8.436-14.143,20.115-19.969,31.5c-3.904,7.549-6.829,14.98-8.131,20.428
		c-0.767,3.105-1.006,5.512-0.997,6.824l0.001,0.172h-0.002c0.6,21.544-16.365,39.506-37.913,40.129
		c-21.562,0.622-39.546-16.353-40.169-37.915c-0.027-0.934-0.032-1.729-0.032-2.386c0.009-9.05,1.306-17.467,3.23-25.37
		c1.936-7.905,4.524-15.321,7.447-22.365c5.861-14.062,13.072-26.707,20.073-37.683c14.006-21.861,27.321-37.037,28.112-37.972
		h0.001c14.206-16.232,38.88-17.875,55.113-3.67c16.219,14.194,17.87,38.837,3.705,55.07L515.361,1095.811z"/>
	<ellipse style="fill:#E83F37;" cx="741.419" cy="1371.631" rx="82.98" ry="75.034"/>
	<path style="fill:#70294B;" d="M927.988,1262.735c-0.102,0.863-0.885,1.479-1.747,1.377c-0.733-0.087-1.289-0.677-1.377-1.377
		c-1.26-10.021-4.052-19.622-8.195-28.35c-20.769-43.52-73.928-56.468-106.084-17.684c-10.935,12.493-17.466,28.802-20.039,46.496
		c-2.276,14.272-22.921,13.766-24.608-0.461c-8.008-83.018,93.236-130.011,145.901-61.37
		C924.92,1219.653,930.455,1241.985,927.988,1262.735z"/>
	<path style="fill:#70294B;" d="M1136.906,1317.684c-11.615,22.336-42.932,30.606-63.783,16.368
		c-5.859-3.63-10.484-8.778-13.786-14.577c-11.446,19.366-38.974,28.713-60.6,15.635c-30.417-16.689-30.017-64.435,2.514-77.285
		c5.284-2.057,9.387,5.15,5.044,8.656c-16.491,13.847-15.494,40.408,2.838,50.601c18.071,10.64,41.332-1.83,45.151-22.985
		c0.214-1.403,0.898-2.45,1.814-3.146c1.373-1.046,3.269-1.296,4.9-0.764c1.631,0.528,2.996,1.835,3.304,3.91
		c2.356,11.126,9.234,19.852,18.091,23.959c18.04,8.963,40.209-3.835,41.591-23.9c0.85-9.702-3.163-20.118-11.693-27.675
		c-4.403-3.556-0.139-10.721,5.044-8.656C1139.663,1265.861,1149.358,1296.877,1136.906,1317.684z"/>
	<path style="fill:#70294B;" d="M1241.172,1197.28c-26.819,9.88-44.265,37.286-47.45,65.455c-0.103,0.863-0.885,1.479-1.748,1.377
		c-0.732-0.087-1.288-0.677-1.377-1.377c-2.466-20.75,3.068-43.082,16.151-61.37c28.559-41.262,92.774-43.96,124.879-5.11
		c15.947,18.475,23.606,43.303,21.022,66.48c-1.869,14.647-22.885,14.488-24.678,0
		C1323.511,1221.125,1284.385,1180.344,1241.172,1197.28z"/>
	<ellipse style="fill:#E83F37;" cx="1377.166" cy="1371.631" rx="82.979" ry="75.034"/>
	<path style="fill:#FFFFFF;" d="M793.078,823.171c18.545-8.33,34.045-14.042,44.695-17.61c5.325-1.785,9.437-3.033,12.108-3.809
		c1.336-0.387,2.313-0.657,2.901-0.815l0.588-0.157l0.042-0.01l0.004-0.002l0.023-0.006l0-0.004
		c20.869-5.293,33.527-26.479,28.279-47.371c-5.256-20.921-26.476-33.62-47.396-28.363l0-0.001
		c-2.303,0.603-53.297,13.534-119.559,50.013c-33.122,18.254-70.067,42.428-106.481,74.064c-4.181,3.632-8.352,7.39-12.51,11.223
		l39.233,70.57c8.071-8.036,16.258-15.655,24.512-22.827C706.769,866.981,755.97,839.822,793.078,823.171z"/>
	<path style="fill:#FFFFFF;" d="M505.375,967.823c-11.609,18.181-6.281,42.33,11.901,53.939
		c18.181,11.608,42.33,6.281,53.939-11.901c18.779-29.41,39.946-54.965,62.078-77.222l-41.633-68.453
		C561.05,892.951,531.324,927.183,505.375,967.823z"/>
	<path style="fill:#86CBC8;" d="M501.828,1737.026h520.519c-70.44-11.949-468.076-7.976-547.274-69.952
		c-137.287-107.434-170.041-260.992-155.544-418.627l-32.081-27.968c-0.304,1.432-0.588,2.867-0.884,4.302
		c-1.023,4.969-2.026,9.941-2.948,14.93c-0.586,3.175-1.126,6.358-1.671,9.54c-0.842,4.923-1.638,9.851-2.38,14.79
		c-0.463,3.08-0.918,6.16-1.341,9.245c-0.736,5.366-1.391,10.742-2.009,16.123c-0.301,2.624-0.633,5.244-0.906,7.87
		c-0.829,7.992-1.559,15.993-2.123,24.008c-1.476,20.983-2.298,42.509-2.193,64.221c0.064,13.027,0.46,26.123,1.25,39.208
		c0.527,8.724,1.228,17.444,2.121,26.137c1.787,17.386,4.343,34.664,7.807,51.653c2.599,12.742,5.708,25.322,9.388,37.662
		c4.906,16.453,10.826,32.481,17.9,47.902c1.769,3.855,3.609,7.672,5.524,11.449c3.83,7.553,7.957,14.942,12.399,22.147
		c4.442,7.204,9.199,14.222,14.287,21.032c5.089,6.809,10.51,13.41,16.281,19.78c5.771,6.37,11.892,12.508,18.38,18.392
		c6.488,5.885,13.344,11.514,20.583,16.868c3.082,2.279,6.21,4.495,9.381,6.647c9.515,6.454,19.422,12.327,29.654,17.575
		C453.97,1731.201,476.363,1737.026,501.828,1737.026z"/>
	<path style="fill:#86CBC8;" d="M366.775,1010.482c-0.936,1.657-1.885,3.307-2.809,4.972c-2.704,4.871-5.339,9.778-7.931,14.71
		c-1.012,1.928-2.011,3.864-3.006,5.801c-2.533,4.929-5.032,9.874-7.452,14.859c-0.834,1.717-1.631,3.452-2.451,5.175
		c-7.739,16.263-14.865,32.813-21.393,49.601c-0.942,2.421-1.911,4.83-2.828,7.26c-1.665,4.422-3.251,8.874-4.832,13.327
		c-1.109,3.121-2.209,6.245-3.276,9.381c-1.427,4.198-2.817,8.408-4.169,12.631c-1.132,3.534-2.218,7.081-3.298,10.632
		c-1.204,3.964-2.413,7.925-3.549,11.908c-1.23,4.302-2.372,8.628-3.522,12.952c-0.881,3.309-1.814,6.606-2.649,9.927
		c-1.003,3.989-1.899,8.004-2.835,12.009l30.195,28.473c8.846-80.668,29.574-162.065,54.564-238.586
		C372.576,1000.482,369.62,1005.45,366.775,1010.482z"/>
	<path style="fill:#86CBC8;" d="M1802.721,1261.94l30.173-24.458c-0.122-0.63-0.254-1.254-0.379-1.884
		c-0.369-1.864-0.742-3.725-1.124-5.582c-0.353-1.723-0.712-3.441-1.075-5.157c-0.391-1.843-0.785-3.682-1.185-5.516
		c-0.379-1.728-0.762-3.449-1.151-5.169c-0.403-1.792-0.81-3.58-1.225-5.363c-0.408-1.755-0.824-3.501-1.242-5.246
		c-0.417-1.742-0.834-3.483-1.261-5.215c-0.435-1.765-0.88-3.522-1.323-5.277c-0.429-1.692-0.858-3.384-1.296-5.067
		c-0.463-1.775-0.933-3.54-1.406-5.304c-0.44-1.649-0.88-3.298-1.33-4.937c-0.488-1.779-0.985-3.544-1.483-5.311
		c-0.451-1.602-0.9-3.206-1.36-4.799c-0.511-1.775-1.034-3.534-1.555-5.296c-0.464-1.57-0.927-3.142-1.398-4.701
		c-0.533-1.763-1.078-3.508-1.621-5.257c-0.475-1.53-0.947-3.066-1.429-4.585c-0.559-1.761-1.129-3.503-1.697-5.249
		c-0.482-1.478-0.959-2.965-1.446-4.433c-0.593-1.781-1.195-3.54-1.797-5.304c-0.481-1.411-0.956-2.832-1.443-4.232
		c-0.624-1.797-1.261-3.569-1.895-5.348c-0.477-1.336-0.947-2.684-1.427-4.009c-0.679-1.869-1.37-3.709-2.059-5.556
		c-0.45-1.21-0.895-2.433-1.35-3.634c-0.767-2.023-1.547-4.014-2.325-6.009c-0.389-0.997-0.771-2.009-1.163-2.999
		c-1.175-2.969-2.361-5.908-3.56-8.812c-2.842-6.883-5.789-13.711-8.839-20.482c-58.098-128.989-153.558-237.413-270.241-314.752
		l-17.904,41.33C1634.274,898.729,1768.034,1048.41,1802.721,1261.94z"/>
	<path style="fill:#86CBC8;" d="M1503.23,752.11c-15.689-10.141-31.707-19.788-48.102-28.788
		c-6.45-3.541-12.952-6.992-19.503-10.351c-13.102-6.718-26.401-13.069-39.879-19.042c-40.433-17.916-82.471-32.422-125.614-43.186
		c-7.083-1.767-14.196-3.411-21.324-4.994c-2.156-0.479-4.318-0.934-6.479-1.396c-5.221-1.117-10.451-2.185-15.694-3.203
		c-2.217-0.431-4.432-0.872-6.654-1.285c-7.053-1.312-14.116-2.564-21.202-3.699c-0.946-0.152-1.895-0.276-2.84-0.424
		c-6.215-0.975-12.442-1.877-18.678-2.716c-2.582-0.347-5.168-0.668-7.753-0.992c-4.834-0.606-9.671-1.169-14.515-1.693
		c-2.596-0.281-5.191-0.573-7.79-0.831c-6.917-0.686-13.841-1.313-20.774-1.834c0.001,0,0.001,0,0.001,0
		c56.857,12.767,212.147,62.663,360.518,166.447L1503.23,752.11z"/>
	<path style="fill:#86CBC8;" d="M1847.451,1370.579c-0.008-0.449-0.01-0.899-0.019-1.349c-0.062-2.873-0.155-5.746-0.253-8.62
		c-0.03-0.887-0.05-1.774-0.083-2.661c-0.098-2.607-0.224-5.214-0.351-7.82c-0.056-1.155-0.103-2.31-0.164-3.466
		c-0.132-2.465-0.287-4.93-0.445-7.394c-0.082-1.283-0.155-2.566-0.243-3.848c-0.162-2.37-0.348-4.737-0.534-7.105
		c-0.108-1.379-0.208-2.76-0.324-4.138c-0.193-2.294-0.405-4.584-0.618-6.874c-0.135-1.449-0.265-2.898-0.408-4.345
		c-0.219-2.216-0.455-4.43-0.693-6.642c-0.163-1.522-0.323-3.044-0.496-4.565c-0.244-2.153-0.503-4.302-0.765-6.45
		c-0.191-1.573-0.38-3.145-0.581-4.714c-0.266-2.085-0.547-4.166-0.829-6.245c-0.221-1.63-0.442-3.26-0.674-4.886
		c-0.288-2.032-0.589-4.059-0.891-6.085c-0.25-1.658-0.498-3.315-0.757-4.969c-0.311-1.996-0.633-3.986-0.96-5.976
		c-0.273-1.676-0.55-3.35-0.835-5.022c-0.331-1.944-0.67-3.885-1.013-5.823c-0.217-1.221-0.43-2.445-0.651-3.663l-30.75,22.996
		c12.011,81.059,9.821,171.181-11.505,271.174c-13.572,63.645-48.438,120.422-91.485,167.99c0.388-0.242,0.788-0.472,1.174-0.715
		c1.635-1.034,3.238-2.094,4.841-3.155c1.846-1.223,3.672-2.462,5.476-3.72c1.507-1.052,3.012-2.104,4.491-3.181
		c2.067-1.505,4.091-3.048,6.101-4.602c1.124-0.868,2.273-1.712,3.378-2.594c2.986-2.384,5.903-4.823,8.763-7.311
		c1.012-0.88,1.989-1.789,2.986-2.682c1.999-1.792,3.977-3.6,5.913-5.443c1.054-1.003,2.095-2.017,3.131-3.035
		c1.922-1.89,3.812-3.807,5.672-5.747c0.879-0.916,1.767-1.823,2.632-2.75c2.666-2.859,5.285-5.753,7.82-8.712
		c2.048-2.391,4.044-4.822,6.009-7.278c0.17-0.214,0.348-0.422,0.519-0.636c1.841-2.316,3.634-4.67,5.402-7.042
		c0.273-0.368,0.558-0.729,0.83-1.098c1.678-2.275,3.311-4.583,4.923-6.906c0.337-0.484,0.683-0.962,1.016-1.449
		c1.546-2.255,3.047-4.541,4.531-6.84c0.37-0.573,0.749-1.14,1.115-1.715c1.432-2.254,2.826-4.535,4.202-6.829
		c0.384-0.641,0.775-1.278,1.156-1.922c1.334-2.262,2.632-4.547,3.911-6.845c0.389-0.699,0.783-1.395,1.168-2.097
		c1.24-2.269,2.448-4.56,3.635-6.863c0.391-0.756,0.785-1.509,1.169-2.267c1.158-2.287,2.286-4.594,3.393-6.913
		c0.378-0.79,0.758-1.578,1.129-2.371c1.083-2.311,2.137-4.64,3.171-6.982c0.366-0.825,0.73-1.651,1.088-2.48
		c1.011-2.336,1.995-4.686,2.958-7.05c0.347-0.852,0.693-1.704,1.034-2.559c0.942-2.363,1.86-4.74,2.756-7.13
		c0.328-0.876,0.654-1.754,0.976-2.632c0.876-2.389,1.73-4.79,2.561-7.203c0.31-0.899,0.615-1.801,0.918-2.704
		c0.812-2.417,1.605-4.844,2.375-7.284c0.287-0.912,0.568-1.829,0.849-2.744c0.754-2.452,1.49-4.912,2.2-7.387
		c0.262-0.913,0.516-1.83,0.773-2.745c0.697-2.494,1.38-4.995,2.034-7.51c0.238-0.913,0.466-1.829,0.698-2.744
		c0.642-2.536,1.272-5.079,1.873-7.635c0.21-0.895,0.409-1.795,0.615-2.692c0.592-2.591,1.171-5.188,1.721-7.797
		c0.183-0.872,0.356-1.75,0.535-2.624c0.542-2.647,1.071-5.298,1.569-7.963c0.158-0.838,0.302-1.681,0.454-2.521
		c0.493-2.716,0.976-5.436,1.425-8.169c0.127-0.771,0.241-1.547,0.366-2.32c0.45-2.816,0.888-5.637,1.293-8.47
		c0.094-0.658,0.177-1.318,0.268-1.977c0.409-2.95,0.807-5.906,1.17-8.872c0.062-0.516,0.116-1.033,0.177-1.549
		c0.372-3.124,0.729-6.253,1.048-9.392c0.023-0.223,0.041-0.447,0.063-0.67c1.239-12.33,2.081-24.775,2.552-37.287
		C1847.6,1395.755,1847.698,1383.176,1847.451,1370.579z"/>
	<path style="fill:#F6BBD7;" d="M1629.515,462.593c1.06,0.435,2.129,0.809,3.205,1.13c0.362,0.108,0.73,0.175,1.093,0.27
		c0.716,0.187,1.432,0.383,2.15,0.521c0.433,0.083,0.867,0.124,1.3,0.189c0.65,0.099,1.301,0.21,1.95,0.27
		c0.472,0.043,0.94,0.044,1.41,0.068c0.597,0.03,1.198,0.071,1.794,0.069c1.457-0.006,2.9-0.127,4.329-0.32
		c0.346-0.046,0.689-0.106,1.032-0.163c1.304-0.217,2.592-0.496,3.857-0.863c0.148-0.043,0.299-0.07,0.445-0.115
		c1.377-0.419,2.713-0.947,4.024-1.538c0.317-0.143,0.629-0.295,0.942-0.448c1.216-0.593,2.403-1.242,3.542-1.979
		c0.094-0.06,0.193-0.11,0.286-0.171c1.205-0.796,2.343-1.694,3.443-2.645c0.269-0.232,0.53-0.472,0.792-0.713
		c1.04-0.959,2.041-1.967,2.96-3.065c0.041-0.047,0.085-0.089,0.124-0.136c0.945-1.138,1.793-2.37,2.591-3.647
		c0.196-0.312,0.385-0.629,0.571-0.949c0.766-1.32,1.481-2.682,2.076-4.133c0.285-0.694,0.535-1.392,0.77-2.093
		c-0.015,0.015-0.033,0.026-0.047,0.041c-9.31,9.366-23.682,12.749-36.66,7.425c-16.45-6.748-24.671-25.026-19.187-41.655
		c0.019-0.057,0.029-0.114,0.048-0.171c-0.234,0.235-0.407,0.534-0.633,0.777c-0.974,1.043-1.876,2.161-2.72,3.338
		c-0.341,0.474-0.694,0.928-1.012,1.423c-1.077,1.684-2.061,3.449-2.846,5.364C1604.091,435.875,1612.314,455.538,1629.515,462.593z
		"/>
	<path style="fill:#F6BBD7;" d="M405.427,466.701c-0.377-0.648-0.779-1.272-1.191-1.886c0.006,0.045,0.003,0.09,0.008,0.135
		c1.729,13.064-4.333,26.489-16.435,33.529c-15.417,8.969-35.001,4.312-44.823-10.27c-0.003-0.005-0.007-0.009-0.01-0.013
		c0.045,0.33,0.128,0.657,0.183,0.987c0.118,0.706,0.229,1.413,0.393,2.115c0.092,0.393,0.223,0.779,0.33,1.17
		c0.18,0.66,0.347,1.323,0.569,1.976c0.179,0.528,0.41,1.044,0.618,1.566c0.201,0.508,0.377,1.021,0.605,1.522
		c0.465,1.022,0.982,2.03,1.559,3.021c0.704,1.21,1.491,2.339,2.316,3.427c0.244,0.323,0.503,0.629,0.758,0.941
		c0.634,0.777,1.297,1.519,1.989,2.227c0.275,0.282,0.545,0.57,0.829,0.84c0.959,0.915,1.951,1.786,3,2.571
		c0.038,0.028,0.078,0.051,0.116,0.078c1.019,0.758,2.084,1.435,3.174,2.068c0.338,0.196,0.684,0.375,1.027,0.559
		c0.852,0.456,1.719,0.872,2.604,1.252c0.347,0.148,0.69,0.305,1.042,0.442c1.205,0.47,2.428,0.891,3.677,1.219
		c0.078,0.021,0.158,0.03,0.235,0.05c1.18,0.302,2.379,0.526,3.586,0.699c0.382,0.055,0.765,0.091,1.148,0.133
		c0.963,0.105,1.93,0.166,2.902,0.187c0.374,0.008,0.746,0.026,1.121,0.021c1.298-0.015,2.595-0.084,3.893-0.251
		c0.067-0.009,0.133-0.027,0.201-0.036c1.227-0.166,2.448-0.417,3.663-0.722c0.384-0.096,0.766-0.213,1.147-0.324
		c0.939-0.272,1.87-0.587,2.793-0.946c0.376-0.145,0.753-0.283,1.125-0.443c1.246-0.535,2.478-1.125,3.68-1.824
		c3.013-1.753,5.653-3.902,7.891-6.342c1.492-1.627,2.807-3.383,3.935-5.238c1.128-1.855,2.07-3.809,2.817-5.831
		c1.121-3.033,1.803-6.219,2.022-9.453c0.072-1.078,0.093-2.162,0.061-3.247c-0.064-2.17-0.338-4.346-0.831-6.499
		C408.413,472.886,407.181,469.714,405.427,466.701z"/>
	<path style="fill:#F6BBD7;" d="M2086.875,1052.039c-10.923-14.027-8.981-33.97,4.035-45.677c0.046-0.042,0.085-0.088,0.132-0.13
		c-0.4,0.111-0.792,0.266-1.19,0.392c-0.336,0.106-0.671,0.214-1.005,0.331c-1.485,0.524-2.942,1.148-4.365,1.891
		c-0.261,0.136-0.515,0.292-0.774,0.436c-1.491,0.83-2.952,1.747-4.342,2.828c-7.334,5.711-11.658,13.854-12.721,22.403
		c-0.134,1.069-0.215,2.143-0.245,3.221c-0.031,1.078-0.01,2.157,0.063,3.235c0.219,3.234,0.904,6.454,2.071,9.553
		c1.166,3.1,2.813,6.078,4.956,8.828c0.005,0.007,0.011,0.013,0.017,0.019c0.773,0.992,1.598,1.917,2.455,2.798
		c0.282,0.29,0.585,0.55,0.876,0.828c0.598,0.572,1.203,1.132,1.834,1.652c0.362,0.299,0.737,0.575,1.111,0.858
		c0.597,0.452,1.202,0.887,1.824,1.295c0.399,0.262,0.804,0.514,1.212,0.757c0.634,0.378,1.279,0.729,1.933,1.062
		c0.412,0.21,0.821,0.422,1.239,0.615c0.707,0.324,1.427,0.609,2.152,0.883c0.379,0.144,0.753,0.304,1.137,0.433
		c0.969,0.326,1.952,0.602,2.943,0.839c0.149,0.035,0.294,0.087,0.441,0.121c1.144,0.256,2.3,0.445,3.463,0.581
		c0.354,0.042,0.711,0.051,1.067,0.082c0.815,0.069,1.631,0.125,2.451,0.136c0.317,0.004,0.634-0.014,0.952-0.018
		c1.594-0.025,3.187-0.134,4.769-0.385c0.051-0.008,0.102-0.009,0.152-0.018c1.607-0.263,3.192-0.681,4.761-1.181
		c0.291-0.093,0.585-0.18,0.875-0.281c1.511-0.529,2.992-1.167,4.436-1.922c0.271-0.141,0.535-0.3,0.803-0.449
		c1.49-0.831,2.95-1.745,4.338-2.826c0.591-0.461,1.156-0.943,1.708-1.434c-0.02,0.006-0.041,0.007-0.061,0.013
		C2109.648,1067.31,2095.493,1063.106,2086.875,1052.039z"/>
	<path style="fill:#F6BBD7;" d="M135.128,1024.808c0.034,0.073,0.054,0.151,0.088,0.225c5.546,11.911,3.82,26.488-5.559,36.832
		c-11.981,13.213-32.057,14.698-45.829,3.77c-0.004-0.003-0.009-0.005-0.013-0.008c0.018,0.038,0.048,0.072,0.066,0.11
		c0.901,1.882,1.975,3.697,3.241,5.413c0.022,0.031,0.05,0.059,0.073,0.09c1.289,1.733,2.755,3.372,4.416,4.878
		c1.528,1.386,3.16,2.577,4.851,3.631c0.134,0.084,0.261,0.181,0.397,0.263c1.622,0.98,3.312,1.784,5.04,2.464
		c0.223,0.088,0.441,0.187,0.665,0.27c1.692,0.624,3.42,1.091,5.171,1.433c0.273,0.053,0.543,0.112,0.817,0.158
		c1.736,0.295,3.485,0.448,5.239,0.47c0.399,0.005,0.798,0.007,1.197-0.002c0.609-0.014,1.217-0.046,1.825-0.093
		c0.504-0.038,1.006-0.085,1.508-0.146c0.609-0.075,1.213-0.172,1.817-0.279c0.493-0.088,0.983-0.177,1.472-0.286
		c0.608-0.136,1.209-0.3,1.809-0.471c0.478-0.135,0.953-0.266,1.425-0.422c0.6-0.199,1.187-0.431,1.777-0.663
		c0.458-0.181,0.917-0.354,1.369-0.555c0.595-0.267,1.175-0.571,1.756-0.873c0.424-0.221,0.854-0.427,1.271-0.668
		c0.598-0.344,1.175-0.733,1.755-1.116c0.378-0.25,0.764-0.481,1.135-0.748c0.626-0.452,1.223-0.954,1.822-1.453
		c0.299-0.248,0.61-0.473,0.901-0.733c0.876-0.783,1.722-1.615,2.529-2.504c12.488-13.772,11.447-35.061-2.325-47.549
		C136.279,1025.741,135.707,1025.268,135.128,1024.808z"/>
	<path style="fill:#F6BBD7;" d="M1078.256,235.083c4.079-3.523,7.296-8.005,9.313-13.085c0.806-2.033,1.419-4.16,1.818-6.361
		c0.399-2.201,0.584-4.475,0.532-6.798c-0.017-0.75-0.066-1.49-0.131-2.227c-0.007,0.019-0.019,0.037-0.027,0.055
		c-4.782,12.309-16.599,21.163-30.624,21.479c-17.83,0.402-32.724-13.14-34.277-30.652c-0.002-0.006-0.002-0.012-0.003-0.018
		c-0.126,0.327-0.218,0.671-0.333,1.003c-0.231,0.659-0.472,1.313-0.661,1.989c-0.116,0.408-0.191,0.83-0.29,1.244
		c-0.155,0.645-0.325,1.285-0.444,1.944c-0.106,0.591-0.159,1.198-0.233,1.8c-0.063,0.499-0.151,0.989-0.19,1.495
		c-0.088,1.12-0.122,2.255-0.095,3.403c0.027,1.154,0.111,2.292,0.25,3.413c0.047,0.378,0.134,0.742,0.194,1.117
		c0.116,0.736,0.221,1.474,0.384,2.192c0.096,0.423,0.234,0.828,0.346,1.245c0.175,0.651,0.335,1.308,0.546,1.943
		c0.141,0.422,0.322,0.824,0.478,1.238c0.23,0.608,0.448,1.223,0.711,1.814c0.183,0.409,0.402,0.796,0.601,1.197
		c0.282,0.57,0.552,1.147,0.865,1.698c0.229,0.404,0.493,0.783,0.738,1.175c0.324,0.519,0.637,1.047,0.988,1.546
		c0.276,0.392,0.584,0.758,0.876,1.138c0.361,0.469,0.71,0.948,1.095,1.398c0.317,0.37,0.663,0.712,0.995,1.068
		c0.398,0.426,0.786,0.862,1.204,1.266c0.353,0.34,0.73,0.65,1.096,0.974c0.435,0.385,0.861,0.78,1.316,1.143
		c0.386,0.308,0.797,0.585,1.196,0.876c0.466,0.339,0.923,0.687,1.405,1.002c0.423,0.277,0.868,0.52,1.304,0.778
		c0.49,0.288,0.97,0.586,1.473,0.85c0.453,0.237,0.922,0.439,1.386,0.655c0.517,0.242,1.028,0.493,1.558,0.708
		c0.475,0.193,0.965,0.35,1.451,0.522c0.542,0.191,1.078,0.392,1.632,0.556c0.501,0.148,1.013,0.26,1.522,0.385
		c0.559,0.137,1.115,0.284,1.685,0.393c0.524,0.1,1.058,0.163,1.589,0.239c0.575,0.081,1.146,0.172,1.729,0.224
		c0.542,0.048,1.092,0.059,1.641,0.082c0.715,0.029,1.427,0.076,2.155,0.06c4.647-0.105,9.052-1.146,13.039-2.94
		C1073.053,238.965,1075.809,237.197,1078.256,235.083z"/>
	<g>
		<g>
			<path style="fill:#70294B;" d="M2010.557,1523.488l-9.925-20.958c-0.5-1.055-0.448-2.289,0.137-3.299l11.638-20.057
				c1.476-2.543-0.605-5.675-3.521-5.299l-22.999,2.963c-1.158,0.15-2.315-0.281-3.095-1.15l-15.479-17.266
				c-1.963-2.189-5.584-1.177-6.128,1.712l-4.289,22.789c-0.216,1.147-0.983,2.115-2.051,2.588l-21.204,9.386
				c-2.689,1.19-2.845,4.947-0.266,6.357l20.348,11.121c1.024,0.56,1.708,1.588,1.827,2.75l2.374,23.067
				c0.301,2.925,3.826,4.235,5.964,2.217l16.865-15.916c0.849-0.801,2.038-1.133,3.18-0.888l22.671,4.87
				C2009.48,1529.092,2011.816,1526.145,2010.557,1523.488z"/>
		</g>
	</g>
	<g>
		<g>
			<path style="fill:#70294B;" d="M532.981,1874.849l0.699-15.786c0.035-0.795,0.459-1.522,1.134-1.943l13.401-8.374
				c1.699-1.062,1.443-3.611-0.433-4.314l-14.797-5.542c-0.745-0.279-1.305-0.907-1.497-1.679l-3.823-15.332
				c-0.485-1.945-2.988-2.489-4.236-0.921l-9.844,12.36c-0.496,0.622-1.266,0.961-2.06,0.905l-15.763-1.102
				c-1.999-0.14-3.29,2.073-2.186,3.744l8.713,13.182c0.439,0.664,0.523,1.501,0.225,2.239l-5.92,14.651
				c-0.75,1.858,0.955,3.77,2.886,3.236l15.229-4.214c0.767-0.212,1.589-0.033,2.199,0.478l12.105,10.157
				C530.546,1877.882,532.891,1876.85,532.981,1874.849z"/>
		</g>
	</g>
	<g>
		<g>
			<g>
				<path style="fill:#70294B;" d="M773.844,291.054l2.686,23.782c0.204,1.802,1.281,3.39,2.881,4.244l21.113,11.269
					c4.03,2.151,3.844,7.989-0.315,9.88l-21.787,9.903c-1.651,0.751-2.828,2.266-3.145,4.052l-4.194,23.563
					c-0.8,4.497-6.41,6.125-9.493,2.754l-16.152-17.661c-1.224-1.339-3.029-1.989-4.825-1.74l-23.705,3.293
					c-4.524,0.629-7.806-4.204-5.552-8.178l11.805-20.819c0.895-1.578,0.956-3.495,0.163-5.127l-10.457-21.527
					c-1.996-4.109,1.586-8.723,6.061-7.808l23.448,4.794c1.777,0.363,3.619-0.171,4.927-1.429l17.242-16.597
					C767.836,284.534,773.331,286.515,773.844,291.054z"/>
			</g>
		</g>
		<g>
			<g>
				<path style="fill:#70294B;" d="M825.638,453.263l12.807,9.256c0.645,0.466,1.478,0.585,2.227,0.318l14.885-5.303
					c1.888-0.672,3.727,1.111,3.113,3.018l-4.845,15.041c-0.244,0.757-0.1,1.586,0.386,2.216l9.643,12.518
					c1.223,1.587,0.095,3.888-1.909,3.893l-15.802,0.04c-0.796,0.002-1.539,0.395-1.989,1.052l-8.925,13.04
					c-1.132,1.653-3.668,1.291-4.292-0.612l-4.921-15.016c-0.248-0.756-0.852-1.341-1.615-1.566l-15.159-4.459
					c-1.922-0.566-2.362-3.09-0.744-4.271l12.76-9.32c0.643-0.469,1.013-1.225,0.991-2.02l-0.444-15.795
					C821.75,453.287,824.015,452.089,825.638,453.263z"/>
			</g>
		</g>
		<g>
			<g>
				<path style="fill:#70294B;" d="M653.468,453.263l12.807,9.256c0.645,0.466,1.478,0.585,2.227,0.318l14.885-5.303
					c1.888-0.672,3.727,1.111,3.113,3.018l-4.845,15.041c-0.244,0.757-0.099,1.586,0.386,2.216l9.643,12.518
					c1.223,1.587,0.095,3.888-1.909,3.893l-15.802,0.04c-0.795,0.002-1.539,0.395-1.989,1.052l-8.925,13.04
					c-1.132,1.653-3.668,1.291-4.292-0.612l-4.921-15.016c-0.247-0.756-0.852-1.341-1.615-1.566l-15.159-4.459
					c-1.922-0.566-2.362-3.09-0.744-4.271l12.76-9.32c0.643-0.469,1.013-1.225,0.991-2.02l-0.444-15.795
					C649.58,453.287,651.845,452.089,653.468,453.263z"/>
			</g>
		</g>
	</g>
</g>
</svg>
